# xmcd
#
# Track frame offsets:
#	150
#	18975
#	38775
#	50250
#	68850
#	89925
#	106950
#	128100
#	146250
#	162149
#	176399
#	189299
#
# Disc length: 2663 seconds
#
# Revision: 1
# Processed by: cddbd v1.4PL0 Copyright (c) Steve Scherf et al.
# Submitted via: audiograbber 1.80.04
#
DISCID=990a650c
DTITLE=Les Binuchards - Ô l'a Buffé !
DYEAR=2001
DGENRE=
TTITLE0=Ô l'a Buffé
TTITLE1=Il Faut vivre
TTITLE2=Les Cons
TTITLE3=Ballade Celtique
TTITLE4=Las vaches maigres
TTITLE5=Madeleine
TTITLE6=Bal de la lune
TTITLE7=Cordouan
TTITLE8=Sirene d'Amour
TTITLE9=Les Binuchards
TTITLE10=La vie d'artiste
TTITLE11=Bernard l'ours
EXTD=
EXTT0=
EXTT1=
EXTT2=
EXTT3=
EXTT4=
EXTT5=
EXTT6=
EXTT7=
EXTT8=
EXTT9=
EXTT10=
EXTT11=
PLAYORDER=
